{
    "accessors" : [
        {
            "bufferView" : 0,
            "componentType" : 5126,
            "count" : 1465,
            "max" : [
                2.6408019065856934,
                0.04163073003292084,
                1.0182698965072632
            ],
            "min" : [
                -3.088616132736206,
                -0.9689123630523682,
                -1.0010803937911987
            ],
            "type" : "VEC3"
        },
        {
            "bufferView" : 1,
            "componentType" : 5126,
            "count" : 1465,
            "type" : "VEC3"
        },
        {
            "bufferView" : 2,
            "componentType" : 5126,
            "count" : 1465,
            "type" : "VEC2"
        },
        {
            "bufferView" : 3,
            "componentType" : 5123,
            "count" : 2844,
            "type" : "SCALAR"
        },
        {
            "bufferView" : 4,
            "componentType" : 5126,
            "count" : 134,
            "max" : [
                2.5656988620758057,
                -0.5043107867240906,
                0.8760314583778381
            ],
            "min" : [
                -2.9923019409179688,
                -0.9689123630523682,
                -0.8594555258750916
            ],
            "type" : "VEC3"
        },
        {
            "bufferView" : 5,
            "componentType" : 5126,
            "count" : 134,
            "type" : "VEC3"
        },
        {
            "bufferView" : 6,
            "componentType" : 5126,
            "count" : 134,
            "type" : "VEC2"
        },
        {
            "bufferView" : 7,
            "componentType" : 5121,
            "count" : 252,
            "type" : "SCALAR"
        },
        {
            "bufferView" : 8,
            "componentType" : 5126,
            "count" : 642,
            "max" : [
                2.2857491970062256,
                0.16304658353328705,
                0.866055965423584
            ],
            "min" : [
                -2.724907636642456,
                -0.10247007012367249,
                -0.8455520868301392
            ],
            "type" : "VEC3"
        },
        {
            "bufferView" : 9,
            "componentType" : 5126,
            "count" : 642,
            "type" : "VEC3"
        },
        {
            "bufferView" : 10,
            "componentType" : 5126,
            "count" : 642,
            "type" : "VEC2"
        },
        {
            "bufferView" : 11,
            "componentType" : 5123,
            "count" : 1710,
            "type" : "SCALAR"
        },
        {
            "bufferView" : 12,
            "componentType" : 5126,
            "count" : 139,
            "max" : [
                2.615622043609619,
                -0.03892695903778076,
                0.19143342971801758
            ],
            "min" : [
                2.3498618602752686,
                -0.3117491602897644,
                -0.20462608337402344
            ],
            "type" : "VEC3"
        },
        {
            "bufferView" : 13,
            "componentType" : 5126,
            "count" : 139,
            "type" : "VEC3"
        },
        {
            "bufferView" : 14,
            "componentType" : 5126,
            "count" : 139,
            "type" : "VEC2"
        },
        {
            "bufferView" : 15,
            "componentType" : 5121,
            "count" : 264,
            "type" : "SCALAR"
        },
        {
            "bufferView" : 16,
            "componentType" : 5126,
            "count" : 120,
            "max" : [
                2.6323580741882324,
                -0.10652347654104233,
                0.08830894529819489
            ],
            "min" : [
                2.3856935501098633,
                -0.24902841448783875,
                -0.09473754465579987
            ],
            "type" : "VEC3"
        },
        {
            "bufferView" : 17,
            "componentType" : 5126,
            "count" : 120,
            "type" : "VEC3"
        },
        {
            "bufferView" : 18,
            "componentType" : 5126,
            "count" : 120,
            "type" : "VEC2"
        },
        {
            "bufferView" : 19,
            "componentType" : 5121,
            "count" : 180,
            "type" : "SCALAR"
        },
        {
            "bufferView" : 20,
            "componentType" : 5126,
            "count" : 2581,
            "max" : [
                2.5984930992126465,
                -0.22629621624946594,
                0.6429778337478638
            ],
            "min" : [
                -3.015010118484497,
                -0.8526712656021118,
                -0.6504759192466736
            ],
            "type" : "VEC3"
        },
        {
            "bufferView" : 21,
            "componentType" : 5126,
            "count" : 2581,
            "type" : "VEC3"
        },
        {
            "bufferView" : 22,
            "componentType" : 5126,
            "count" : 2581,
            "type" : "VEC2"
        },
        {
            "bufferView" : 23,
            "componentType" : 5123,
            "count" : 4800,
            "type" : "SCALAR"
        },
        {
            "bufferView" : 24,
            "componentType" : 5126,
            "count" : 1984,
            "max" : [
                10.00000286102295,
                10,
                10.000003814697266
            ],
            "min" : [
                -9.99999713897705,
                -10,
                -10
            ],
            "type" : "VEC3"
        },
        {
            "bufferView" : 25,
            "componentType" : 5126,
            "count" : 1984,
            "type" : "VEC3"
        },
        {
            "bufferView" : 26,
            "componentType" : 5126,
            "count" : 1984,
            "type" : "VEC2"
        },
        {
            "bufferView" : 27,
            "componentType" : 5123,
            "count" : 2880,
            "type" : "SCALAR"
        },
        {
            "bufferView" : 28,
            "componentType" : 5126,
            "count" : 1417,
            "max" : [
                2.499999999999949
            ],
            "min" : [
                0.041666666666666664
            ],
            "type" : "SCALAR"
        },
        {
            "bufferView" : 29,
            "componentType" : 5126,
            "count" : 1417,
            "type" : "VEC3"
        },
        {
            "bufferView" : 30,
            "componentType" : 5126,
            "count" : 1417,
            "max" : [
                2.499999999999949
            ],
            "min" : [
                0.041666666666666664
            ],
            "type" : "SCALAR"
        },
        {
            "bufferView" : 31,
            "componentType" : 5126,
            "count" : 1417,
            "type" : "VEC4"
        },
        {
            "bufferView" : 32,
            "componentType" : 5126,
            "count" : 1417,
            "max" : [
                2.499999999999949
            ],
            "min" : [
                0.041666666666666664
            ],
            "type" : "SCALAR"
        },
        {
            "bufferView" : 33,
            "componentType" : 5126,
            "count" : 1417,
            "type" : "VEC3"
        }
    ],
    "animations" : [
        {
            "channels" : [
                {
                    "sampler" : 0,
                    "target" : {
                        "node" : 0,
                        "path" : "translation"
                    }
                },
                {
                    "sampler" : 1,
                    "target" : {
                        "node" : 0,
                        "path" : "rotation"
                    }
                },
                {
                    "sampler" : 2,
                    "target" : {
                        "node" : 0,
                        "path" : "scale"
                    }
                }
            ],
            "name" : "CubeAction",
            "samplers" : [
                {
                    "input" : 28,
                    "interpolation" : "STEP",
                    "output" : 29
                },
                {
                    "input" : 30,
                    "interpolation" : "STEP",
                    "output" : 31
                },
                {
                    "input" : 32,
                    "interpolation" : "STEP",
                    "output" : 33
                }
            ]
        }
    ],
    "asset" : {
        "generator" : "Khronos Blender glTF 2.0 I/O",
        "version" : "2.0"
    },
    "bufferViews" : [
        {
            "buffer" : 0,
            "byteLength" : 17580,
            "byteOffset" : 0
        },
        {
            "buffer" : 0,
            "byteLength" : 17580,
            "byteOffset" : 17580
        },
        {
            "buffer" : 0,
            "byteLength" : 11720,
            "byteOffset" : 35160
        },
        {
            "buffer" : 0,
            "byteLength" : 5688,
            "byteOffset" : 46880
        },
        {
            "buffer" : 0,
            "byteLength" : 1608,
            "byteOffset" : 52568
        },
        {
            "buffer" : 0,
            "byteLength" : 1608,
            "byteOffset" : 54176
        },
        {
            "buffer" : 0,
            "byteLength" : 1072,
            "byteOffset" : 55784
        },
        {
            "buffer" : 0,
            "byteLength" : 252,
            "byteOffset" : 56856
        },
        {
            "buffer" : 0,
            "byteLength" : 7704,
            "byteOffset" : 57108
        },
        {
            "buffer" : 0,
            "byteLength" : 7704,
            "byteOffset" : 64812
        },
        {
            "buffer" : 0,
            "byteLength" : 5136,
            "byteOffset" : 72516
        },
        {
            "buffer" : 0,
            "byteLength" : 3420,
            "byteOffset" : 77652
        },
        {
            "buffer" : 0,
            "byteLength" : 1668,
            "byteOffset" : 81072
        },
        {
            "buffer" : 0,
            "byteLength" : 1668,
            "byteOffset" : 82740
        },
        {
            "buffer" : 0,
            "byteLength" : 1112,
            "byteOffset" : 84408
        },
        {
            "buffer" : 0,
            "byteLength" : 264,
            "byteOffset" : 85520
        },
        {
            "buffer" : 0,
            "byteLength" : 1440,
            "byteOffset" : 85784
        },
        {
            "buffer" : 0,
            "byteLength" : 1440,
            "byteOffset" : 87224
        },
        {
            "buffer" : 0,
            "byteLength" : 960,
            "byteOffset" : 88664
        },
        {
            "buffer" : 0,
            "byteLength" : 180,
            "byteOffset" : 89624
        },
        {
            "buffer" : 0,
            "byteLength" : 30972,
            "byteOffset" : 89804
        },
        {
            "buffer" : 0,
            "byteLength" : 30972,
            "byteOffset" : 120776
        },
        {
            "buffer" : 0,
            "byteLength" : 20648,
            "byteOffset" : 151748
        },
        {
            "buffer" : 0,
            "byteLength" : 9600,
            "byteOffset" : 172396
        },
        {
            "buffer" : 0,
            "byteLength" : 23808,
            "byteOffset" : 181996
        },
        {
            "buffer" : 0,
            "byteLength" : 23808,
            "byteOffset" : 205804
        },
        {
            "buffer" : 0,
            "byteLength" : 15872,
            "byteOffset" : 229612
        },
        {
            "buffer" : 0,
            "byteLength" : 5760,
            "byteOffset" : 245484
        },
        {
            "buffer" : 0,
            "byteLength" : 5668,
            "byteOffset" : 251244
        },
        {
            "buffer" : 0,
            "byteLength" : 17004,
            "byteOffset" : 256912
        },
        {
            "buffer" : 0,
            "byteLength" : 5668,
            "byteOffset" : 273916
        },
        {
            "buffer" : 0,
            "byteLength" : 22672,
            "byteOffset" : 279584
        },
        {
            "buffer" : 0,
            "byteLength" : 5668,
            "byteOffset" : 302256
        },
        {
            "buffer" : 0,
            "byteLength" : 17004,
            "byteOffset" : 307924
        }
    ],
    "buffers" : [
        {
            "byteLength" : 324928,
            "uri" : "data:application/octet-stream;base64,"
        }
    ],
    "extensions" : {},
    "images" : [
        {
            "mimeType" : "image/png",
            "name" : "equirectangular (2).jpg",
            "uri" : "equirectangular (2).png"
        },
        {
            "mimeType" : "image/png",
            "name" : "equirectangular (2).jpg",
            "uri" : "equirectangular (2).png"
        }
    ],
    "materials" : [
        {
            "pbrMetallicRoughness" : {
                "baseColorFactor" : [
                    1,
                    1,
                    1,
                    1
                ],
                "metallicFactor" : 0.3569999933242798,
                "roughnessFactor" : 0.20999999344348907
            }
        },
        {
            "pbrMetallicRoughness" : {
                "baseColorFactor" : [
                    0,
                    0,
                    0,
                    1
                ],
                "metallicFactor" : 1,
                "roughnessFactor" : 0
            }
        },
        {
            "pbrMetallicRoughness" : {
                "baseColorFactor" : [
                    0.048001207411289215,
                    0.048001207411289215,
                    0.048001207411289215,
                    1
                ],
                "metallicFactor" : 0,
                "roughnessFactor" : 0.5
            }
        },
        {
            "pbrMetallicRoughness" : {
                "baseColorFactor" : [
                    0.09507918357849121,
                    0.09507918357849121,
                    0.09507918357849121,
                    1
                ],
                "metallicFactor" : 0,
                "roughnessFactor" : 0.30000001192092896
            }
        },
        {
            "pbrMetallicRoughness" : {
                "baseColorFactor" : [
                    0.800000011920929,
                    0.800000011920929,
                    0.800000011920929,
                    1
                ],
                "metallicFactor" : 0.7809523940086365,
                "roughnessFactor" : 0.6238095164299011
            }
        },
        {
            "pbrMetallicRoughness" : {
                "baseColorFactor" : [
                    0.2294674515724182,
                    0.2294674515724182,
                    0.2294674515724182,
                    1
                ],
                "metallicFactor" : 0,
                "roughnessFactor" : 0.6904762387275696
            }
        },
        {
            "emissiveFactor" : [
                1,
                1,
                1,
                1
            ],
            "emissiveTexture" : {
                "index" : 0,
                "texCoord" : 0
            },
            "pbrMetallicRoughness" : {
                "baseColorFactor" : [
                    0.800000011920929,
                    0.800000011920929,
                    0.800000011920929,
                    1
                ],
                "baseColorTexture" : {
                    "index" : 1,
                    "texCoord" : 0
                },
                "metallicFactor" : 0,
                "roughnessFactor" : 0.5
            }
        }
    ],
    "meshes" : [
        {
            "name" : "Cube",
            "primitives" : [
                {
                    "attributes" : {
                        "NORMAL" : 1,
                        "POSITION" : 0,
                        "TEXCOORD_0" : 2
                    },
                    "indices" : 3,
                    "material" : 0
                },
                {
                    "attributes" : {
                        "NORMAL" : 5,
                        "POSITION" : 4,
                        "TEXCOORD_0" : 6
                    },
                    "indices" : 7,
                    "material" : 1
                },
                {
                    "attributes" : {
                        "NORMAL" : 9,
                        "POSITION" : 8,
                        "TEXCOORD_0" : 10
                    },
                    "indices" : 11,
                    "material" : 2
                },
                {
                    "attributes" : {
                        "NORMAL" : 13,
                        "POSITION" : 12,
                        "TEXCOORD_0" : 14
                    },
                    "indices" : 15,
                    "material" : 3
                },
                {
                    "attributes" : {
                        "NORMAL" : 17,
                        "POSITION" : 16,
                        "TEXCOORD_0" : 18
                    },
                    "indices" : 19,
                    "material" : 4
                },
                {
                    "attributes" : {
                        "NORMAL" : 21,
                        "POSITION" : 20,
                        "TEXCOORD_0" : 22
                    },
                    "indices" : 23,
                    "material" : 5
                }
            ]
        },
        {
            "name" : "Sphere",
            "primitives" : [
                {
                    "attributes" : {
                        "NORMAL" : 25,
                        "POSITION" : 24,
                        "TEXCOORD_0" : 26
                    },
                    "indices" : 27,
                    "material" : 6
                }
            ]
        }
    ],
    "nodes" : [
        {
            "mesh" : 0,
            "name" : "Cube",
            "scale" : [
                0.9605375528335571,
                0.9164835810661316,
                0.8106700778007507
            ],
            "translation" : [
                0.14219285547733307,
                0.44872286915779114,
                -0.04802599549293518
            ]
        },
        {
            "mesh" : 1,
            "name" : "Sphere",
            "scale" : [
                9.09841537475586,
                9.09841537475586,
                9.09841537475586
            ],
            "translation" : [
                -0.030032072216272354,
                0.03370654582977295,
                -0.01687711477279663
            ]
        }
    ],
    "scene" : 0,
    "scenes" : [
        {
            "name" : "Scene",
            "nodes" : [
                0,
                1
            ]
        }
    ],
    "textures" : [
        {
            "source" : 0
        },
        {
            "source" : 1
        }
    ]
}
