{
    "accessors" : [
        {
            "bufferView" : 0,
            "componentType" : 5126,
            "count" : 136,
            "max" : [
                2.664271116256714,
                -0.5043107867240906,
                0.8760314583778381
            ],
            "min" : [
                0.13827037811279297,
                -0.9689123630523682,
                -0.8594555258750916
            ],
            "type" : "VEC3"
        },
        {
            "bufferView" : 1,
            "componentType" : 5126,
            "count" : 136,
            "type" : "VEC3"
        },
        {
            "bufferView" : 2,
            "componentType" : 5126,
            "count" : 136,
            "type" : "VEC2"
        },
        {
            "bufferView" : 3,
            "componentType" : 5121,
            "count" : 252,
            "type" : "SCALAR"
        },
        {
            "bufferView" : 4,
            "componentType" : 5126,
            "count" : 1036,
            "max" : [
                2.7445316314697266,
                0.041630517691373825,
                1.0182698965072632
            ],
            "min" : [
                0.044545769691467285,
                -0.9689123630523682,
                -1.0010803937911987
            ],
            "type" : "VEC3"
        },
        {
            "bufferView" : 5,
            "componentType" : 5126,
            "count" : 1036,
            "type" : "VEC3"
        },
        {
            "bufferView" : 6,
            "componentType" : 5126,
            "count" : 1036,
            "type" : "VEC2"
        },
        {
            "bufferView" : 7,
            "componentType" : 5123,
            "count" : 2076,
            "type" : "SCALAR"
        },
        {
            "bufferView" : 8,
            "componentType" : 5126,
            "count" : 128,
            "max" : [
                2.0954933166503906,
                -0.1024700403213501,
                0.865171492099762
            ],
            "min" : [
                0.6808735132217407,
                -0.1024700403213501,
                -0.8109670281410217
            ],
            "type" : "VEC3"
        },
        {
            "bufferView" : 9,
            "componentType" : 5126,
            "count" : 128,
            "type" : "VEC3"
        },
        {
            "bufferView" : 10,
            "componentType" : 5126,
            "count" : 128,
            "type" : "VEC2"
        },
        {
            "bufferView" : 11,
            "componentType" : 5121,
            "count" : 480,
            "type" : "SCALAR"
        },
        {
            "bufferView" : 12,
            "componentType" : 5126,
            "count" : 120,
            "max" : [
                2.6845145225524902,
                -0.10652344673871994,
                0.08830895274877548
            ],
            "min" : [
                2.437849998474121,
                -0.24902841448783875,
                -0.09473754465579987
            ],
            "type" : "VEC3"
        },
        {
            "bufferView" : 13,
            "componentType" : 5126,
            "count" : 120,
            "type" : "VEC3"
        },
        {
            "bufferView" : 14,
            "componentType" : 5126,
            "count" : 120,
            "type" : "VEC2"
        },
        {
            "bufferView" : 15,
            "componentType" : 5121,
            "count" : 180,
            "type" : "SCALAR"
        },
        {
            "bufferView" : 16,
            "componentType" : 5126,
            "count" : 2992,
            "max" : [
                2.6970653533935547,
                -0.22629621624946594,
                0.6429777145385742
            ],
            "min" : [
                0.09820135682821274,
                -0.8526712656021118,
                -0.650475800037384
            ],
            "type" : "VEC3"
        },
        {
            "bufferView" : 17,
            "componentType" : 5126,
            "count" : 2992,
            "type" : "VEC3"
        },
        {
            "bufferView" : 18,
            "componentType" : 5126,
            "count" : 2992,
            "type" : "VEC2"
        },
        {
            "bufferView" : 19,
            "componentType" : 5123,
            "count" : 4800,
            "type" : "SCALAR"
        },
        {
            "bufferView" : 20,
            "componentType" : 5126,
            "count" : 3936,
            "max" : [
                2.7141942977905273,
                -0.038926973938941956,
                0.19143372774124146
            ],
            "min" : [
                2.4484341144561768,
                -0.3117491900920868,
                -0.2046257108449936
            ],
            "type" : "VEC3"
        },
        {
            "bufferView" : 21,
            "componentType" : 5126,
            "count" : 3936,
            "type" : "VEC3"
        },
        {
            "bufferView" : 22,
            "componentType" : 5126,
            "count" : 3936,
            "type" : "VEC2"
        },
        {
            "bufferView" : 23,
            "componentType" : 5123,
            "count" : 6672,
            "type" : "SCALAR"
        },
        {
            "bufferView" : 24,
            "componentType" : 5126,
            "count" : 1984,
            "max" : [
                10.00000286102295,
                10,
                10.000003814697266
            ],
            "min" : [
                -9.99999713897705,
                -10,
                -10
            ],
            "type" : "VEC3"
        },
        {
            "bufferView" : 25,
            "componentType" : 5126,
            "count" : 1984,
            "type" : "VEC3"
        },
        {
            "bufferView" : 26,
            "componentType" : 5126,
            "count" : 1984,
            "type" : "VEC2"
        },
        {
            "bufferView" : 27,
            "componentType" : 5123,
            "count" : 2880,
            "type" : "SCALAR"
        },
        {
            "bufferView" : 28,
            "componentType" : 5126,
            "count" : 1417,
            "max" : [
                2.499999999999949
            ],
            "min" : [
                0.041666666666666664
            ],
            "type" : "SCALAR"
        },
        {
            "bufferView" : 29,
            "componentType" : 5126,
            "count" : 1417,
            "type" : "VEC3"
        },
        {
            "bufferView" : 30,
            "componentType" : 5126,
            "count" : 1417,
            "max" : [
                2.499999999999949
            ],
            "min" : [
                0.041666666666666664
            ],
            "type" : "SCALAR"
        },
        {
            "bufferView" : 31,
            "componentType" : 5126,
            "count" : 1417,
            "type" : "VEC4"
        },
        {
            "bufferView" : 32,
            "componentType" : 5126,
            "count" : 1,
            "max" : [
                2.5
            ],
            "min" : [
                2.5
            ],
            "type" : "SCALAR"
        },
        {
            "bufferView" : 33,
            "componentType" : 5126,
            "count" : 1,
            "type" : "VEC3"
        }
    ],
    "animations" : [
        {
            "channels" : [
                {
                    "sampler" : 0,
                    "target" : {
                        "node" : 0,
                        "path" : "translation"
                    }
                },
                {
                    "sampler" : 1,
                    "target" : {
                        "node" : 0,
                        "path" : "rotation"
                    }
                },
                {
                    "sampler" : 2,
                    "target" : {
                        "node" : 0,
                        "path" : "scale"
                    }
                }
            ],
            "name" : "Cube.003Action",
            "samplers" : [
                {
                    "input" : 28,
                    "interpolation" : "STEP",
                    "output" : 29
                },
                {
                    "input" : 30,
                    "interpolation" : "STEP",
                    "output" : 31
                },
                {
                    "input" : 32,
                    "interpolation" : "STEP",
                    "output" : 33
                }
            ]
        }
    ],
    "asset" : {
        "generator" : "Khronos Blender glTF 2.0 I/O",
        "version" : "2.0"
    },
    "bufferViews" : [
        {
            "buffer" : 0,
            "byteLength" : 1632,
            "byteOffset" : 0
        },
        {
            "buffer" : 0,
            "byteLength" : 1632,
            "byteOffset" : 1632
        },
        {
            "buffer" : 0,
            "byteLength" : 1088,
            "byteOffset" : 3264
        },
        {
            "buffer" : 0,
            "byteLength" : 252,
            "byteOffset" : 4352
        },
        {
            "buffer" : 0,
            "byteLength" : 12432,
            "byteOffset" : 4604
        },
        {
            "buffer" : 0,
            "byteLength" : 12432,
            "byteOffset" : 17036
        },
        {
            "buffer" : 0,
            "byteLength" : 8288,
            "byteOffset" : 29468
        },
        {
            "buffer" : 0,
            "byteLength" : 4152,
            "byteOffset" : 37756
        },
        {
            "buffer" : 0,
            "byteLength" : 1536,
            "byteOffset" : 41908
        },
        {
            "buffer" : 0,
            "byteLength" : 1536,
            "byteOffset" : 43444
        },
        {
            "buffer" : 0,
            "byteLength" : 1024,
            "byteOffset" : 44980
        },
        {
            "buffer" : 0,
            "byteLength" : 480,
            "byteOffset" : 46004
        },
        {
            "buffer" : 0,
            "byteLength" : 1440,
            "byteOffset" : 46484
        },
        {
            "buffer" : 0,
            "byteLength" : 1440,
            "byteOffset" : 47924
        },
        {
            "buffer" : 0,
            "byteLength" : 960,
            "byteOffset" : 49364
        },
        {
            "buffer" : 0,
            "byteLength" : 180,
            "byteOffset" : 50324
        },
        {
            "buffer" : 0,
            "byteLength" : 35904,
            "byteOffset" : 50504
        },
        {
            "buffer" : 0,
            "byteLength" : 35904,
            "byteOffset" : 86408
        },
        {
            "buffer" : 0,
            "byteLength" : 23936,
            "byteOffset" : 122312
        },
        {
            "buffer" : 0,
            "byteLength" : 9600,
            "byteOffset" : 146248
        },
        {
            "buffer" : 0,
            "byteLength" : 47232,
            "byteOffset" : 155848
        },
        {
            "buffer" : 0,
            "byteLength" : 47232,
            "byteOffset" : 203080
        },
        {
            "buffer" : 0,
            "byteLength" : 31488,
            "byteOffset" : 250312
        },
        {
            "buffer" : 0,
            "byteLength" : 13344,
            "byteOffset" : 281800
        },
        {
            "buffer" : 0,
            "byteLength" : 23808,
            "byteOffset" : 295144
        },
        {
            "buffer" : 0,
            "byteLength" : 23808,
            "byteOffset" : 318952
        },
        {
            "buffer" : 0,
            "byteLength" : 15872,
            "byteOffset" : 342760
        },
        {
            "buffer" : 0,
            "byteLength" : 5760,
            "byteOffset" : 358632
        },
        {
            "buffer" : 0,
            "byteLength" : 5668,
            "byteOffset" : 364392
        },
        {
            "buffer" : 0,
            "byteLength" : 17004,
            "byteOffset" : 370060
        },
        {
            "buffer" : 0,
            "byteLength" : 5668,
            "byteOffset" : 387064
        },
        {
            "buffer" : 0,
            "byteLength" : 22672,
            "byteOffset" : 392732
        },
        {
            "buffer" : 0,
            "byteLength" : 4,
            "byteOffset" : 415404
        },
        {
            "buffer" : 0,
            "byteLength" : 12,
            "byteOffset" : 415408
        }
    ],
    "buffers" : [
        {
            "byteLength" : 415420,
            "uri" : "data:application/octet-stream;base64,"
        }
    ],
    "extensions" : {},
    "images" : [
        {
            "mimeType" : "image/png",
            "name" : "equirectangular (2).jpg",
            "uri" : "equirectangular (2).png"
        },
        {
            "mimeType" : "image/png",
            "name" : "equirectangular (2).jpg",
            "uri" : "equirectangular (2).png"
        }
    ],
    "materials" : [
        {
            "pbrMetallicRoughness" : {
                "baseColorFactor" : [
                    0.021230606362223625,
                    0.021230606362223625,
                    0.021230606362223625,
                    1
                ],
                "metallicFactor" : 0,
                "roughnessFactor" : 0.5
            }
        },
        {
            "pbrMetallicRoughness" : {
                "baseColorFactor" : [
                    1,
                    1,
                    1,
                    1
                ],
                "metallicFactor" : 0.3571428656578064,
                "roughnessFactor" : 0.2095237821340561
            }
        },
        {
            "pbrMetallicRoughness" : {
                "baseColorFactor" : [
                    0.051930442452430725,
                    0.051930442452430725,
                    0.051930442452430725,
                    1
                ],
                "metallicFactor" : 0,
                "roughnessFactor" : 0.5
            }
        },
        {
            "pbrMetallicRoughness" : {
                "baseColorFactor" : [
                    0.800000011920929,
                    0.800000011920929,
                    0.800000011920929,
                    1
                ],
                "metallicFactor" : 0.4952380657196045,
                "roughnessFactor" : 0.8095238208770752
            }
        },
        {
            "pbrMetallicRoughness" : {
                "baseColorFactor" : [
                    0.49363991618156433,
                    0.49363991618156433,
                    0.49363991618156433,
                    1
                ],
                "metallicFactor" : 0,
                "roughnessFactor" : 0.6523810029029846
            }
        },
        {
            "pbrMetallicRoughness" : {
                "baseColorFactor" : [
                    0.09295095503330231,
                    0.09295095503330231,
                    0.09295095503330231,
                    1
                ],
                "metallicFactor" : 0,
                "roughnessFactor" : 0.39523810148239136
            }
        },
        {
            "emissiveFactor" : [
                1,
                1,
                1,
                1
            ],
            "emissiveTexture" : {
                "index" : 0,
                "texCoord" : 0
            },
            "pbrMetallicRoughness" : {
                "baseColorFactor" : [
                    0.800000011920929,
                    0.800000011920929,
                    0.800000011920929,
                    1
                ],
                "baseColorTexture" : {
                    "index" : 1,
                    "texCoord" : 0
                },
                "metallicFactor" : 0,
                "roughnessFactor" : 1
            }
        }
    ],
    "meshes" : [
        {
            "name" : "Cube.008",
            "primitives" : [
                {
                    "attributes" : {
                        "NORMAL" : 1,
                        "POSITION" : 0,
                        "TEXCOORD_0" : 2
                    },
                    "indices" : 3,
                    "material" : 0
                },
                {
                    "attributes" : {
                        "NORMAL" : 5,
                        "POSITION" : 4,
                        "TEXCOORD_0" : 6
                    },
                    "indices" : 7,
                    "material" : 1
                },
                {
                    "attributes" : {
                        "NORMAL" : 9,
                        "POSITION" : 8,
                        "TEXCOORD_0" : 10
                    },
                    "indices" : 11,
                    "material" : 2
                },
                {
                    "attributes" : {
                        "NORMAL" : 13,
                        "POSITION" : 12,
                        "TEXCOORD_0" : 14
                    },
                    "indices" : 15,
                    "material" : 3
                },
                {
                    "attributes" : {
                        "NORMAL" : 17,
                        "POSITION" : 16,
                        "TEXCOORD_0" : 18
                    },
                    "indices" : 19,
                    "material" : 4
                },
                {
                    "attributes" : {
                        "NORMAL" : 21,
                        "POSITION" : 20,
                        "TEXCOORD_0" : 22
                    },
                    "indices" : 23,
                    "material" : 5
                }
            ]
        },
        {
            "name" : "Sphere",
            "primitives" : [
                {
                    "attributes" : {
                        "NORMAL" : 25,
                        "POSITION" : 24,
                        "TEXCOORD_0" : 26
                    },
                    "indices" : 27,
                    "material" : 6
                }
            ]
        }
    ],
    "nodes" : [
        {
            "mesh" : 0,
            "name" : "Cube.003",
            "scale" : [
                0.9605375528335571,
                0.9164835810661316,
                0.8106700778007507
            ],
            "translation" : [
                -1.372102975845337,
                0.4587688446044922,
                0.028775855898857117
            ]
        },
        {
            "mesh" : 1,
            "name" : "Sphere",
            "scale" : [
                6.248415470123291,
                6.248415470123291,
                6.248415470123291
            ],
            "translation" : [
                -0.6065025329589844,
                0.1900501251220703,
                -0.17644977569580078
            ]
        }
    ],
    "scene" : 0,
    "scenes" : [
        {
            "name" : "Scene",
            "nodes" : [
                0,
                1
            ]
        }
    ],
    "textures" : [
        {
            "source" : 0
        },
        {
            "source" : 1
        }
    ]
}
